<svg width="72" height="99" viewBox="0 0 72 99" fill="none" xmlns="http://www.w3.org/2000/svg">
<rect width="72" height="72" rx="36" fill="#292929"/>
<path d="M36 29.625C37.9539 29.625 39.538 28.0393 39.538 26.0833H40.7788C41.4135 26.0833 42.0296 26.2968 42.5284 26.6895L48.2095 31.1617C48.822 31.6437 48.9299 32.5306 48.4512 33.1458L46.6729 35.4313C46.1873 36.0555 45.2853 36.1606 44.6694 35.6648L42.6222 34.0167V41.6667C42.6222 44.0139 40.7215 45.9167 38.3766 45.9167H33.7668C31.4219 45.9167 29.5211 44.0139 29.5211 41.6667V34.0167L27.3239 35.7053C26.7073 36.1792 25.8242 36.0664 25.3461 35.4527L23.5492 33.1459C23.07 32.5307 23.1779 31.6434 23.7905 31.1612L29.4709 26.6895C29.9698 26.2968 30.586 26.0833 31.2205 26.0833H32.4619C32.4619 28.0393 34.046 29.625 36 29.625Z" fill="white"/>
<path d="M13.84 93V83.2H19.573V84.18H14.82V87.26H18.901V88.24H14.82V93H13.84ZM25.6096 86H26.5896V93H25.6096L25.5746 91.698C25.346 92.1413 25.0263 92.5007 24.6156 92.776C24.205 93.0467 23.715 93.182 23.1456 93.182C22.6323 93.182 22.1516 93.0863 21.7036 92.895C21.2556 92.699 20.8613 92.4307 20.5206 92.09C20.18 91.7493 19.914 91.355 19.7226 90.907C19.5313 90.459 19.4356 89.9783 19.4356 89.465C19.4356 88.961 19.529 88.4873 19.7156 88.044C19.907 87.6007 20.1683 87.211 20.4996 86.875C20.8356 86.539 21.223 86.2777 21.6616 86.091C22.105 85.8997 22.5786 85.804 23.0826 85.804C23.666 85.804 24.1746 85.944 24.6086 86.224C25.0426 86.4993 25.388 86.861 25.6446 87.309L25.6096 86ZM23.1246 92.23C23.624 92.23 24.0533 92.1087 24.4126 91.866C24.772 91.6187 25.0473 91.2873 25.2386 90.872C25.4346 90.4567 25.5326 89.9993 25.5326 89.5C25.5326 88.9867 25.4346 88.5247 25.2386 88.114C25.0426 87.6987 24.765 87.3697 24.4056 87.127C24.0463 86.8843 23.6193 86.763 23.1246 86.763C22.63 86.763 22.1773 86.8867 21.7666 87.134C21.3606 87.3767 21.0363 87.7057 20.7936 88.121C20.5556 88.5363 20.4366 88.996 20.4366 89.5C20.4366 90.0087 20.5603 90.4707 20.8076 90.886C21.055 91.2967 21.3816 91.6233 21.7876 91.866C22.1983 92.1087 22.644 92.23 23.1246 92.23ZM30.1534 93.133C29.7707 93.1237 29.3974 93.0537 29.0334 92.923C28.6694 92.7923 28.3521 92.615 28.0814 92.391C27.8107 92.167 27.6171 91.9127 27.5004 91.628L28.3474 91.264C28.4221 91.446 28.5597 91.614 28.7604 91.768C28.9657 91.9173 29.1991 92.0387 29.4604 92.132C29.7217 92.2207 29.9807 92.265 30.2374 92.265C30.5221 92.265 30.7881 92.2183 31.0354 92.125C31.2827 92.0317 31.4834 91.8987 31.6374 91.726C31.7961 91.5487 31.8754 91.341 31.8754 91.103C31.8754 90.8463 31.7914 90.6457 31.6234 90.501C31.4554 90.3517 31.2431 90.235 30.9864 90.151C30.7297 90.0623 30.4661 89.9783 30.1954 89.899C29.7007 89.7637 29.2644 89.6143 28.8864 89.451C28.5084 89.2877 28.2121 89.08 27.9974 88.828C27.7874 88.5713 27.6824 88.2423 27.6824 87.841C27.6824 87.4163 27.8014 87.05 28.0394 86.742C28.2821 86.4293 28.5971 86.189 28.9844 86.021C29.3764 85.8483 29.7941 85.762 30.2374 85.762C30.8067 85.762 31.3247 85.8857 31.7914 86.133C32.2627 86.3803 32.6034 86.7093 32.8134 87.12L32.0224 87.589C31.9384 87.3977 31.8054 87.232 31.6234 87.092C31.4414 86.952 31.2337 86.8423 31.0004 86.763C30.7717 86.6837 30.5384 86.6417 30.3004 86.637C30.0017 86.6323 29.7241 86.6767 29.4674 86.77C29.2107 86.8587 29.0031 86.9917 28.8444 87.169C28.6904 87.3463 28.6134 87.5633 28.6134 87.82C28.6134 88.0767 28.6904 88.2727 28.8444 88.408C28.9984 88.5387 29.2061 88.646 29.4674 88.73C29.7334 88.8093 30.0321 88.9027 30.3634 89.01C30.7881 89.1453 31.1871 89.2993 31.5604 89.472C31.9337 89.6447 32.2347 89.8593 32.4634 90.116C32.6921 90.3727 32.8041 90.697 32.7994 91.089C32.7994 91.509 32.6734 91.8753 32.4214 92.188C32.1694 92.5007 31.8427 92.741 31.4414 92.909C31.0401 93.0723 30.6107 93.147 30.1534 93.133ZM40.11 88.667V93H39.13V88.863C39.13 88.4803 39.0367 88.1327 38.85 87.82C38.6633 87.5073 38.4137 87.2577 38.101 87.071C37.7883 86.8843 37.4407 86.791 37.058 86.791C36.68 86.791 36.3323 86.8843 36.015 87.071C35.7023 87.2577 35.4527 87.5073 35.266 87.82C35.0793 88.1327 34.986 88.4803 34.986 88.863V93H34.006V82.5H34.986V86.966C35.2333 86.6113 35.5553 86.329 35.952 86.119C36.3487 85.909 36.7803 85.804 37.247 85.804C37.7743 85.804 38.255 85.9323 38.689 86.189C39.123 86.4457 39.4683 86.791 39.725 87.225C39.9817 87.659 40.11 88.1397 40.11 88.667ZM41.5119 86H42.4919V93H41.5119V86ZM42.0089 84.775C41.8502 84.775 41.7149 84.7237 41.6029 84.621C41.4955 84.5137 41.4419 84.3807 41.4419 84.222C41.4419 84.0633 41.4955 83.9327 41.6029 83.83C41.7149 83.7227 41.8502 83.669 42.0089 83.669C42.1629 83.669 42.2935 83.7227 42.4009 83.83C42.5129 83.9327 42.5689 84.0633 42.5689 84.222C42.5689 84.3807 42.5152 84.5137 42.4079 84.621C42.3005 84.7237 42.1675 84.775 42.0089 84.775ZM47.1895 93.182C46.5455 93.182 45.9575 93.0163 45.4255 92.685C44.8982 92.3537 44.4759 91.9103 44.1585 91.355C43.8459 90.795 43.6895 90.1767 43.6895 89.5C43.6895 88.9867 43.7805 88.5083 43.9625 88.065C44.1445 87.617 44.3942 87.225 44.7115 86.889C45.0335 86.5483 45.4069 86.2823 45.8315 86.091C46.2562 85.8997 46.7089 85.804 47.1895 85.804C47.8335 85.804 48.4192 85.9697 48.9465 86.301C49.4785 86.6323 49.9009 87.078 50.2135 87.638C50.5309 88.198 50.6895 88.8187 50.6895 89.5C50.6895 90.0087 50.5985 90.4847 50.4165 90.928C50.2345 91.3713 49.9825 91.7633 49.6605 92.104C49.3432 92.44 48.9722 92.7037 48.5475 92.895C48.1275 93.0863 47.6749 93.182 47.1895 93.182ZM47.1895 92.202C47.6655 92.202 48.0925 92.0783 48.4705 91.831C48.8532 91.579 49.1542 91.2477 49.3735 90.837C49.5975 90.4263 49.7095 89.9807 49.7095 89.5C49.7095 89.01 49.5975 88.5597 49.3735 88.149C49.1495 87.7337 48.8462 87.4023 48.4635 87.155C48.0855 86.9077 47.6609 86.784 47.1895 86.784C46.7135 86.784 46.2842 86.91 45.9015 87.162C45.5235 87.4093 45.2225 87.7383 44.9985 88.149C44.7792 88.5597 44.6695 89.01 44.6695 89.5C44.6695 90.004 44.7839 90.4613 45.0125 90.872C45.2412 91.278 45.5469 91.6023 45.9295 91.845C46.3122 92.083 46.7322 92.202 47.1895 92.202ZM57.9792 88.667V93H56.9992V88.863C56.9992 88.4803 56.9058 88.1327 56.7192 87.82C56.5325 87.5073 56.2828 87.2577 55.9702 87.071C55.6575 86.8843 55.3098 86.791 54.9272 86.791C54.5492 86.791 54.2015 86.8843 53.8842 87.071C53.5715 87.2577 53.3218 87.5073 53.1352 87.82C52.9485 88.1327 52.8552 88.4803 52.8552 88.863V93H51.8752V86H52.8552V86.966C53.1025 86.6113 53.4245 86.329 53.8212 86.119C54.2178 85.909 54.6495 85.804 55.1162 85.804C55.6435 85.804 56.1242 85.9323 56.5582 86.189C56.9922 86.4457 57.3375 86.791 57.5942 87.225C57.8508 87.659 57.9792 88.1397 57.9792 88.667Z" fill="#292929"/>
</svg>
