<svg width="55" height="54" viewBox="0 0 55 54" fill="none" xmlns="http://www.w3.org/2000/svg">
<path d="M28.275 26.0126C27.85 26.1626 27.15 26.1626 26.725 26.0126C23.1 24.7751 15 19.6126 15 10.8626C15 7.00006 18.1125 3.87506 21.95 3.87506C24.225 3.87506 26.2375 4.97506 27.5 6.67506C28.7625 4.97506 30.7875 3.87506 33.05 3.87506C36.8875 3.87506 40 7.00006 40 10.8626C40 19.6126 31.9 24.7751 28.275 26.0126Z" stroke="#292929" stroke-width="1.5" stroke-linecap="round" stroke-linejoin="round"/>
<path d="M0.84 48V38.2H6.573V39.18H1.82V42.26H5.901V43.24H1.82V48H0.84ZM12.6096 41H13.5896V48H12.6096L12.5746 46.698C12.346 47.1413 12.0263 47.5007 11.6156 47.776C11.205 48.0467 10.715 48.182 10.1456 48.182C9.63229 48.182 9.15163 48.0863 8.70363 47.895C8.25563 47.699 7.86129 47.4307 7.52063 47.09C7.17996 46.7493 6.91396 46.355 6.72263 45.907C6.53129 45.459 6.43563 44.9783 6.43563 44.465C6.43563 43.961 6.52896 43.4873 6.71563 43.044C6.90696 42.6007 7.16829 42.211 7.49963 41.875C7.83563 41.539 8.22296 41.2777 8.66163 41.091C9.10496 40.8997 9.57863 40.804 10.0826 40.804C10.666 40.804 11.1746 40.944 11.6086 41.224C12.0426 41.4993 12.388 41.861 12.6446 42.309L12.6096 41ZM10.1246 47.23C10.624 47.23 11.0533 47.1087 11.4126 46.866C11.772 46.6187 12.0473 46.2873 12.2386 45.872C12.4346 45.4567 12.5326 44.9993 12.5326 44.5C12.5326 43.9867 12.4346 43.5247 12.2386 43.114C12.0426 42.6987 11.765 42.3697 11.4056 42.127C11.0463 41.8843 10.6193 41.763 10.1246 41.763C9.62996 41.763 9.17729 41.8867 8.76663 42.134C8.36063 42.3767 8.03629 42.7057 7.79363 43.121C7.55563 43.5363 7.43663 43.996 7.43663 44.5C7.43663 45.0087 7.56029 45.4707 7.80763 45.886C8.05496 46.2967 8.38163 46.6233 8.78763 46.866C9.19829 47.1087 9.64396 47.23 10.1246 47.23ZM18.2347 48H16.9887L14.4337 40.979H15.4767L17.6117 46.852L19.7467 40.979H20.7897L18.2347 48ZM24.7559 48.182C24.1119 48.182 23.5239 48.0163 22.9919 47.685C22.4646 47.3537 22.0423 46.9103 21.7249 46.355C21.4123 45.795 21.2559 45.1767 21.2559 44.5C21.2559 43.9867 21.3469 43.5083 21.5289 43.065C21.7109 42.617 21.9606 42.225 22.2779 41.889C22.5999 41.5483 22.9733 41.2823 23.3979 41.091C23.8226 40.8997 24.2753 40.804 24.7559 40.804C25.3999 40.804 25.9856 40.9697 26.5129 41.301C27.0449 41.6323 27.4673 42.078 27.7799 42.638C28.0973 43.198 28.2559 43.8187 28.2559 44.5C28.2559 45.0087 28.1649 45.4847 27.9829 45.928C27.8009 46.3713 27.5489 46.7633 27.2269 47.104C26.9096 47.44 26.5386 47.7037 26.1139 47.895C25.6939 48.0863 25.2413 48.182 24.7559 48.182ZM24.7559 47.202C25.2319 47.202 25.6589 47.0783 26.0369 46.831C26.4196 46.579 26.7206 46.2477 26.9399 45.837C27.1639 45.4263 27.2759 44.9807 27.2759 44.5C27.2759 44.01 27.1639 43.5597 26.9399 43.149C26.7159 42.7337 26.4126 42.4023 26.0299 42.155C25.6519 41.9077 25.2273 41.784 24.7559 41.784C24.2799 41.784 23.8506 41.91 23.4679 42.162C23.0899 42.4093 22.7889 42.7383 22.5649 43.149C22.3456 43.5597 22.2359 44.01 22.2359 44.5C22.2359 45.004 22.3503 45.4613 22.5789 45.872C22.8076 46.278 23.1133 46.6023 23.4959 46.845C23.8786 47.083 24.2986 47.202 24.7559 47.202ZM29.4416 48V41H30.4216V41.966C30.6689 41.6113 30.9909 41.329 31.3876 41.119C31.7842 40.909 32.2159 40.804 32.6826 40.804C32.9532 40.804 33.2146 40.839 33.4666 40.909L33.0676 41.882C32.8716 41.8213 32.6802 41.791 32.4936 41.791C32.1156 41.791 31.7679 41.8843 31.4506 42.071C31.1379 42.2577 30.8882 42.5073 30.7016 42.82C30.5149 43.1327 30.4216 43.4803 30.4216 43.863V48H29.4416ZM34.3498 41H35.3298V48H34.3498V41ZM34.8468 39.775C34.6881 39.775 34.5528 39.7237 34.4408 39.621C34.3334 39.5137 34.2798 39.3807 34.2798 39.222C34.2798 39.0633 34.3334 38.9327 34.4408 38.83C34.5528 38.7227 34.6881 38.669 34.8468 38.669C35.0008 38.669 35.1314 38.7227 35.2388 38.83C35.3508 38.9327 35.4068 39.0633 35.4068 39.222C35.4068 39.3807 35.3531 39.5137 35.2458 39.621C35.1384 39.7237 35.0054 39.775 34.8468 39.775ZM40.5928 41.98H38.9198L38.9128 48H37.9328L37.9398 41.98H36.6728V41H37.9398L37.9328 38.802H38.9128L38.9198 41H40.5928V41.98ZM44.7305 48.182C44.0865 48.182 43.4985 48.0163 42.9665 47.685C42.4392 47.3537 42.0169 46.9103 41.6995 46.355C41.3869 45.795 41.2305 45.1767 41.2305 44.5C41.2305 43.9867 41.3215 43.5083 41.5035 43.065C41.6855 42.617 41.9352 42.225 42.2525 41.889C42.5745 41.5483 42.9479 41.2823 43.3725 41.091C43.7972 40.8997 44.2499 40.804 44.7305 40.804C45.2485 40.804 45.7245 40.9067 46.1585 41.112C46.5972 41.3173 46.9729 41.6043 47.2855 41.973C47.6029 42.3417 47.8409 42.7733 47.9995 43.268C48.1629 43.7627 48.2305 44.297 48.2025 44.871H42.2665C42.3225 45.3143 42.4625 45.711 42.6865 46.061C42.9152 46.411 43.2045 46.6887 43.5545 46.894C43.9092 47.0947 44.3012 47.1973 44.7305 47.202C45.1972 47.202 45.6172 47.0807 45.9905 46.838C46.3685 46.5953 46.6719 46.2617 46.9005 45.837L47.8945 46.068C47.6145 46.6887 47.1922 47.1973 46.6275 47.594C46.0629 47.986 45.4305 48.182 44.7305 48.182ZM42.2385 44.08H47.2155C47.1829 43.646 47.0499 43.2493 46.8165 42.89C46.5879 42.526 46.2915 42.2367 45.9275 42.022C45.5635 41.8027 45.1645 41.693 44.7305 41.693C44.2965 41.693 43.8999 41.8003 43.5405 42.015C43.1812 42.225 42.8872 42.512 42.6585 42.876C42.4299 43.2353 42.2899 43.6367 42.2385 44.08ZM51.5792 48.133C51.1965 48.1237 50.8232 48.0537 50.4592 47.923C50.0952 47.7923 49.7778 47.615 49.5072 47.391C49.2365 47.167 49.0428 46.9127 48.9262 46.628L49.7732 46.264C49.8478 46.446 49.9855 46.614 50.1862 46.768C50.3915 46.9173 50.6248 47.0387 50.8862 47.132C51.1475 47.2207 51.4065 47.265 51.6632 47.265C51.9478 47.265 52.2138 47.2183 52.4612 47.125C52.7085 47.0317 52.9092 46.8987 53.0632 46.726C53.2218 46.5487 53.3012 46.341 53.3012 46.103C53.3012 45.8463 53.2172 45.6457 53.0492 45.501C52.8812 45.3517 52.6688 45.235 52.4122 45.151C52.1555 45.0623 51.8918 44.9783 51.6212 44.899C51.1265 44.7637 50.6902 44.6143 50.3122 44.451C49.9342 44.2877 49.6378 44.08 49.4232 43.828C49.2132 43.5713 49.1082 43.2423 49.1082 42.841C49.1082 42.4163 49.2272 42.05 49.4652 41.742C49.7078 41.4293 50.0228 41.189 50.4102 41.021C50.8022 40.8483 51.2198 40.762 51.6632 40.762C52.2325 40.762 52.7505 40.8857 53.2172 41.133C53.6885 41.3803 54.0292 41.7093 54.2392 42.12L53.4482 42.589C53.3642 42.3977 53.2312 42.232 53.0492 42.092C52.8672 41.952 52.6595 41.8423 52.4262 41.763C52.1975 41.6837 51.9642 41.6417 51.7262 41.637C51.4275 41.6323 51.1498 41.6767 50.8932 41.77C50.6365 41.8587 50.4288 41.9917 50.2702 42.169C50.1162 42.3463 50.0392 42.5633 50.0392 42.82C50.0392 43.0767 50.1162 43.2727 50.2702 43.408C50.4242 43.5387 50.6318 43.646 50.8932 43.73C51.1592 43.8093 51.4578 43.9027 51.7892 44.01C52.2138 44.1453 52.6128 44.2993 52.9862 44.472C53.3595 44.6447 53.6605 44.8593 53.8892 45.116C54.1178 45.3727 54.2298 45.697 54.2252 46.089C54.2252 46.509 54.0992 46.8753 53.8472 47.188C53.5952 47.5007 53.2685 47.741 52.8672 47.909C52.4658 48.0723 52.0365 48.147 51.5792 48.133Z" fill="#292929"/>
</svg>
