<svg width="37" height="54" viewBox="0 0 37 54" fill="none" xmlns="http://www.w3.org/2000/svg">
<path d="M29.5375 10.0126L21.35 3.46258C19.75 2.18758 17.25 2.17508 15.6625 3.45008L7.47501 10.0126C6.30001 10.9501 5.58751 12.8251 5.83751 14.3001L7.41251 23.7251C7.77501 25.8376 9.73751 27.5001 11.875 27.5001H25.125C27.2375 27.5001 29.2375 25.8001 29.6 23.7126L31.175 14.2876C31.4 12.8251 30.6875 10.9501 29.5375 10.0126ZM19.4375 22.5001C19.4375 23.0126 19.0125 23.4376 18.5 23.4376C17.9875 23.4376 17.5625 23.0126 17.5625 22.5001V18.7501C17.5625 18.2376 17.9875 17.8126 18.5 17.8126C19.0125 17.8126 19.4375 18.2376 19.4375 18.7501V22.5001Z" fill="#292929"/>
<path d="M6.608 38.2H8.316V48H6.608V43.604H2.548V48H0.84V38.2H2.548V41.896H6.608V38.2ZM12.9708 48.182C12.3268 48.182 11.7388 48.0163 11.2068 47.685C10.6794 47.3537 10.2571 46.9103 9.93978 46.355C9.62711 45.795 9.47078 45.1767 9.47078 44.5C9.47078 43.9867 9.56178 43.5083 9.74378 43.065C9.92578 42.617 10.1754 42.225 10.4928 41.889C10.8148 41.5483 11.1881 41.2823 11.6128 41.091C12.0374 40.8997 12.4901 40.804 12.9708 40.804C13.6148 40.804 14.2004 40.9697 14.7278 41.301C15.2598 41.6323 15.6821 42.078 15.9948 42.638C16.3121 43.198 16.4708 43.8187 16.4708 44.5C16.4708 45.0087 16.3798 45.4847 16.1978 45.928C16.0158 46.3713 15.7638 46.7633 15.4418 47.104C15.1244 47.44 14.7534 47.7037 14.3288 47.895C13.9088 48.0863 13.4561 48.182 12.9708 48.182ZM12.9708 46.474C13.3114 46.474 13.6171 46.383 13.8878 46.201C14.1584 46.019 14.3708 45.7787 14.5248 45.48C14.6834 45.1813 14.7628 44.8547 14.7628 44.5C14.7628 44.136 14.6811 43.8047 14.5178 43.506C14.3591 43.2027 14.1421 42.9623 13.8668 42.785C13.5961 42.603 13.2974 42.512 12.9708 42.512C12.6348 42.512 12.3314 42.603 12.0608 42.785C11.7901 42.967 11.5754 43.2097 11.4168 43.513C11.2581 43.8163 11.1788 44.1453 11.1788 44.5C11.1788 44.8687 11.2604 45.2023 11.4238 45.501C11.5871 45.7997 11.8041 46.0377 12.0748 46.215C12.3501 46.3877 12.6488 46.474 12.9708 46.474ZM17.5607 48V41H19.2687V41.623C19.5067 41.371 19.7914 41.1727 20.1227 41.028C20.454 40.8787 20.811 40.804 21.1937 40.804C21.679 40.804 22.1247 40.9183 22.5307 41.147C22.9414 41.3757 23.268 41.6813 23.5107 42.064C23.758 41.6813 24.0847 41.3757 24.4907 41.147C24.8967 40.9183 25.3424 40.804 25.8277 40.804C26.341 40.804 26.8054 40.93 27.2207 41.182C27.6407 41.4293 27.9744 41.763 28.2217 42.183C28.4737 42.5983 28.5997 43.0627 28.5997 43.576V48H26.8917V44.031C26.8917 43.7603 26.824 43.513 26.6887 43.289C26.558 43.0603 26.3807 42.8783 26.1567 42.743C25.9374 42.603 25.69 42.533 25.4147 42.533C25.1394 42.533 24.8897 42.6007 24.6657 42.736C24.4464 42.8667 24.269 43.044 24.1337 43.268C23.9984 43.492 23.9307 43.7463 23.9307 44.031V48H22.2227V44.031C22.2227 43.7463 22.1574 43.492 22.0267 43.268C21.896 43.044 21.7187 42.8667 21.4947 42.736C21.2707 42.6007 21.021 42.533 20.7457 42.533C20.475 42.533 20.2277 42.603 20.0037 42.743C19.7797 42.8783 19.6 43.0603 19.4647 43.289C19.334 43.513 19.2687 43.7603 19.2687 44.031V48H17.5607ZM32.9454 48.182C32.3014 48.182 31.7134 48.0163 31.1814 47.685C30.6541 47.3537 30.2317 46.908 29.9144 46.348C29.6017 45.788 29.4454 45.1697 29.4454 44.493C29.4454 43.9843 29.5364 43.5083 29.7184 43.065C29.9004 42.617 30.1501 42.225 30.4674 41.889C30.7894 41.5483 31.1627 41.2823 31.5874 41.091C32.0121 40.8997 32.4647 40.804 32.9454 40.804C33.4914 40.804 33.9907 40.9207 34.4434 41.154C34.9007 41.3827 35.2881 41.6977 35.6054 42.099C35.9227 42.5003 36.1537 42.9577 36.2984 43.471C36.4431 43.9843 36.4757 44.521 36.3964 45.081H31.2794C31.3447 45.3423 31.4521 45.578 31.6014 45.788C31.7507 45.9933 31.9397 46.159 32.1684 46.285C32.3971 46.4063 32.6561 46.4693 32.9454 46.474C33.2441 46.4787 33.5147 46.4087 33.7574 46.264C34.0047 46.1147 34.2101 45.914 34.3734 45.662L36.1164 46.068C35.8317 46.6887 35.4071 47.1973 34.8424 47.594C34.2777 47.986 33.6454 48.182 32.9454 48.182ZM31.2234 43.8H34.6674C34.6161 43.52 34.5064 43.268 34.3384 43.044C34.1751 42.8153 33.9721 42.6333 33.7294 42.498C33.4867 42.3627 33.2254 42.295 32.9454 42.295C32.6654 42.295 32.4064 42.3627 32.1684 42.498C31.9304 42.6287 31.7274 42.8083 31.5594 43.037C31.3961 43.261 31.2841 43.5153 31.2234 43.8Z" fill="#292929"/>
</svg>
