<svg width="50" height="54" viewBox="0 0 50 54" fill="none" xmlns="http://www.w3.org/2000/svg">
<path d="M12.5 2.50006H14.675C16.025 2.50006 17.0875 3.66256 16.975 5.00006L15.9375 17.4501C15.7625 19.4876 17.375 21.2375 19.425 21.2375H32.7375C34.5375 21.2375 36.1125 19.7626 36.25 17.9751L36.925 8.60007C37.075 6.52507 35.5 4.83755 33.4125 4.83755H17.275" stroke="#292929" stroke-width="1.5" stroke-miterlimit="10" stroke-linecap="round" stroke-linejoin="round"/>
<path d="M30.3125 27.5C31.1754 27.5 31.875 26.8004 31.875 25.9375C31.875 25.0746 31.1754 24.375 30.3125 24.375C29.4496 24.375 28.75 25.0746 28.75 25.9375C28.75 26.8004 29.4496 27.5 30.3125 27.5Z" stroke="#292929" stroke-width="1.5" stroke-miterlimit="10" stroke-linecap="round" stroke-linejoin="round"/>
<path d="M20.3125 27.5C21.1754 27.5 21.875 26.8004 21.875 25.9375C21.875 25.0746 21.1754 24.375 20.3125 24.375C19.4496 24.375 18.75 25.0746 18.75 25.9375C18.75 26.8004 19.4496 27.5 20.3125 27.5Z" stroke="#292929" stroke-width="1.5" stroke-miterlimit="10" stroke-linecap="round" stroke-linejoin="round"/>
<path d="M21.25 10.0001H36.25" stroke="#292929" stroke-width="1.5" stroke-miterlimit="10" stroke-linecap="round" stroke-linejoin="round"/>
<path d="M0.84 48L2.737 38.2H3.451L6.195 45.41L8.925 38.2H9.639L11.543 48H10.542L9.093 40.503L6.503 47.356H5.873L3.283 40.503L1.834 48H0.84ZM17.2014 41H18.2374L14.4084 51.5H13.3654L14.6394 48L12.1264 41H13.1974L15.1294 46.649L17.2014 41ZM27.5381 48.182C26.8754 48.182 26.2524 48.0513 25.6691 47.79C25.0858 47.524 24.5724 47.16 24.1291 46.698C23.6904 46.2313 23.3451 45.69 23.0931 45.074C22.8458 44.458 22.7221 43.8 22.7221 43.1C22.7221 42.4 22.8458 41.742 23.0931 41.126C23.3451 40.51 23.6904 39.971 24.1291 39.509C24.5724 39.0423 25.0858 38.6783 25.6691 38.417C26.2524 38.151 26.8754 38.018 27.5381 38.018C28.3314 38.018 29.0618 38.2023 29.7291 38.571C30.3964 38.9397 30.9494 39.4297 31.3881 40.041L30.5201 40.51C30.1748 40.048 29.7361 39.6817 29.2041 39.411C28.6768 39.1357 28.1214 38.998 27.5381 38.998C27.0014 38.998 26.4998 39.1077 26.0331 39.327C25.5711 39.5417 25.1651 39.838 24.8151 40.216C24.4651 40.594 24.1921 41.0303 23.9961 41.525C23.8001 42.0197 23.7021 42.5447 23.7021 43.1C23.7021 43.6647 23.8001 44.1943 23.9961 44.689C24.1968 45.1837 24.4721 45.62 24.8221 45.998C25.1768 46.376 25.5851 46.6723 26.0471 46.887C26.5138 47.097 27.0108 47.202 27.5381 47.202C28.1448 47.202 28.7071 47.0643 29.2251 46.789C29.7478 46.509 30.1794 46.145 30.5201 45.697L31.3881 46.166C30.9494 46.7773 30.3964 47.2673 29.7291 47.636C29.0618 48 28.3314 48.182 27.5381 48.182ZM38.1897 41H39.1697V48H38.1897L38.1547 46.698C37.926 47.1413 37.6064 47.5007 37.1957 47.776C36.785 48.0467 36.295 48.182 35.7257 48.182C35.2124 48.182 34.7317 48.0863 34.2837 47.895C33.8357 47.699 33.4414 47.4307 33.1007 47.09C32.76 46.7493 32.494 46.355 32.3027 45.907C32.1114 45.459 32.0157 44.9783 32.0157 44.465C32.0157 43.961 32.109 43.4873 32.2957 43.044C32.487 42.6007 32.7484 42.211 33.0797 41.875C33.4157 41.539 33.803 41.2777 34.2417 41.091C34.685 40.8997 35.1587 40.804 35.6627 40.804C36.246 40.804 36.7547 40.944 37.1887 41.224C37.6227 41.4993 37.968 41.861 38.2247 42.309L38.1897 41ZM35.7047 47.23C36.204 47.23 36.6334 47.1087 36.9927 46.866C37.352 46.6187 37.6274 46.2873 37.8187 45.872C38.0147 45.4567 38.1127 44.9993 38.1127 44.5C38.1127 43.9867 38.0147 43.5247 37.8187 43.114C37.6227 42.6987 37.345 42.3697 36.9857 42.127C36.6264 41.8843 36.1994 41.763 35.7047 41.763C35.21 41.763 34.7574 41.8867 34.3467 42.134C33.9407 42.3767 33.6164 42.7057 33.3737 43.121C33.1357 43.5363 33.0167 43.996 33.0167 44.5C33.0167 45.0087 33.1404 45.4707 33.3877 45.886C33.635 46.2967 33.9617 46.6233 34.3677 46.866C34.7784 47.1087 35.224 47.23 35.7047 47.23ZM40.5705 48V41H41.5505V41.966C41.7978 41.6113 42.1198 41.329 42.5165 41.119C42.9131 40.909 43.3448 40.804 43.8115 40.804C44.0821 40.804 44.3435 40.839 44.5955 40.909L44.1965 41.882C44.0005 41.8213 43.8091 41.791 43.6225 41.791C43.2445 41.791 42.8968 41.8843 42.5795 42.071C42.2668 42.2577 42.0171 42.5073 41.8305 42.82C41.6438 43.1327 41.5505 43.4803 41.5505 43.863V48H40.5705ZM49.1514 41.98H47.4784L47.4714 48H46.4914L46.4984 41.98H45.2314V41H46.4984L46.4914 38.802H47.4714L47.4784 41H49.1514V41.98Z" fill="#292929"/>
</svg>
