<svg width="38" height="54" viewBox="0 0 38 54" fill="none" xmlns="http://www.w3.org/2000/svg">
<path d="M19.15 15.975C19.0625 15.9625 18.95 15.9625 18.85 15.975C16.65 15.9 14.9 14.1 14.9 11.8875C14.9 9.62498 16.725 7.78748 19 7.78748C21.2625 7.78748 23.1 9.62498 23.1 11.8875C23.0875 14.1 21.35 15.9 19.15 15.975Z" stroke="#292929" stroke-width="1.5" stroke-linecap="round" stroke-linejoin="round"/>
<path d="M27.425 24.2251C25.2 26.2626 22.25 27.5001 19 27.5001C15.75 27.5001 12.8 26.2626 10.575 24.2251C10.7 23.0501 11.45 21.9001 12.7875 21.0001C16.2125 18.7251 21.8125 18.7251 25.2125 21.0001C26.55 21.9001 27.3 23.0501 27.425 24.2251Z" stroke="#292929" stroke-width="1.5" stroke-linecap="round" stroke-linejoin="round"/>
<path d="M19 27.5001C25.9036 27.5001 31.5 21.9036 31.5 15.0001C31.5 8.0965 25.9036 2.50006 19 2.50006C12.0964 2.50006 6.5 8.0965 6.5 15.0001C6.5 21.9036 12.0964 27.5001 19 27.5001Z" stroke="#292929" stroke-width="1.5" stroke-linecap="round" stroke-linejoin="round"/>
<path d="M0.84 48V38.2H3.976C4.49867 38.2 4.97 38.3283 5.39 38.585C5.81 38.837 6.14367 39.18 6.391 39.614C6.643 40.0433 6.769 40.5263 6.769 41.063C6.769 41.6043 6.64067 42.092 6.384 42.526C6.132 42.96 5.79367 43.303 5.369 43.555C4.949 43.807 4.48467 43.933 3.976 43.933H1.82V48H0.84ZM1.82 42.953H3.899C4.24433 42.953 4.55933 42.869 4.844 42.701C5.13333 42.5283 5.362 42.2973 5.53 42.008C5.70267 41.714 5.789 41.3827 5.789 41.014C5.789 40.6453 5.70267 40.3163 5.53 40.027C5.362 39.733 5.13333 39.502 4.844 39.334C4.55933 39.1613 4.24433 39.075 3.899 39.075H1.82V42.953ZM8.03141 48V41H9.01141V41.966C9.25874 41.6113 9.58074 41.329 9.97741 41.119C10.3741 40.909 10.8057 40.804 11.2724 40.804C11.5431 40.804 11.8044 40.839 12.0564 40.909L11.6574 41.882C11.4614 41.8213 11.2701 41.791 11.0834 41.791C10.7054 41.791 10.3577 41.8843 10.0404 42.071C9.72774 42.2577 9.47807 42.5073 9.29141 42.82C9.10474 43.1327 9.01141 43.4803 9.01141 43.863V48H8.03141ZM15.6505 48.182C15.0065 48.182 14.4185 48.0163 13.8865 47.685C13.3591 47.3537 12.9368 46.9103 12.6195 46.355C12.3068 45.795 12.1505 45.1767 12.1505 44.5C12.1505 43.9867 12.2415 43.5083 12.4235 43.065C12.6055 42.617 12.8551 42.225 13.1725 41.889C13.4945 41.5483 13.8678 41.2823 14.2925 41.091C14.7171 40.8997 15.1698 40.804 15.6505 40.804C16.2945 40.804 16.8801 40.9697 17.4075 41.301C17.9395 41.6323 18.3618 42.078 18.6745 42.638C18.9918 43.198 19.1505 43.8187 19.1505 44.5C19.1505 45.0087 19.0595 45.4847 18.8775 45.928C18.6955 46.3713 18.4435 46.7633 18.1215 47.104C17.8041 47.44 17.4331 47.7037 17.0085 47.895C16.5885 48.0863 16.1358 48.182 15.6505 48.182ZM15.6505 47.202C16.1265 47.202 16.5535 47.0783 16.9315 46.831C17.3141 46.579 17.6151 46.2477 17.8345 45.837C18.0585 45.4263 18.1705 44.9807 18.1705 44.5C18.1705 44.01 18.0585 43.5597 17.8345 43.149C17.6105 42.7337 17.3071 42.4023 16.9245 42.155C16.5465 41.9077 16.1218 41.784 15.6505 41.784C15.1745 41.784 14.7451 41.91 14.3625 42.162C13.9845 42.4093 13.6835 42.7383 13.4595 43.149C13.2401 43.5597 13.1305 44.01 13.1305 44.5C13.1305 45.004 13.2448 45.4613 13.4735 45.872C13.7021 46.278 14.0078 46.6023 14.3905 46.845C14.7731 47.083 15.1931 47.202 15.6505 47.202ZM21.8535 39.173V41H23.9535V41.98H21.8535V48H20.8735V41.98H19.9145V41H20.8735V39.173C20.8735 38.8323 20.9551 38.5243 21.1185 38.249C21.2865 37.969 21.5105 37.7473 21.7905 37.584C22.0705 37.416 22.3808 37.332 22.7215 37.332C22.9688 37.332 23.2068 37.381 23.4355 37.479C23.6688 37.577 23.8765 37.7217 24.0585 37.913L23.3585 38.606C23.2838 38.5127 23.1881 38.4403 23.0715 38.389C22.9595 38.3377 22.8428 38.312 22.7215 38.312C22.4835 38.312 22.2781 38.396 22.1055 38.564C21.9375 38.732 21.8535 38.935 21.8535 39.173ZM25.0255 41H26.0055V48H25.0255V41ZM25.5225 39.775C25.3639 39.775 25.2285 39.7237 25.1165 39.621C25.0092 39.5137 24.9555 39.3807 24.9555 39.222C24.9555 39.0633 25.0092 38.9327 25.1165 38.83C25.2285 38.7227 25.3639 38.669 25.5225 38.669C25.6765 38.669 25.8072 38.7227 25.9145 38.83C26.0265 38.9327 26.0825 39.0633 26.0825 39.222C26.0825 39.3807 26.0289 39.5137 25.9215 39.621C25.8142 39.7237 25.6812 39.775 25.5225 39.775ZM27.7463 48V37.5H28.7263V48H27.7463ZM33.4376 48.182C32.7936 48.182 32.2056 48.0163 31.6736 47.685C31.1462 47.3537 30.7239 46.9103 30.4066 46.355C30.0939 45.795 29.9376 45.1767 29.9376 44.5C29.9376 43.9867 30.0286 43.5083 30.2106 43.065C30.3926 42.617 30.6422 42.225 30.9596 41.889C31.2816 41.5483 31.6549 41.2823 32.0796 41.091C32.5042 40.8997 32.9569 40.804 33.4376 40.804C33.9556 40.804 34.4316 40.9067 34.8656 41.112C35.3042 41.3173 35.6799 41.6043 35.9926 41.973C36.3099 42.3417 36.5479 42.7733 36.7066 43.268C36.8699 43.7627 36.9376 44.297 36.9096 44.871H30.9736C31.0296 45.3143 31.1696 45.711 31.3936 46.061C31.6222 46.411 31.9116 46.6887 32.2616 46.894C32.6162 47.0947 33.0082 47.1973 33.4376 47.202C33.9042 47.202 34.3242 47.0807 34.6976 46.838C35.0756 46.5953 35.3789 46.2617 35.6076 45.837L36.6016 46.068C36.3216 46.6887 35.8992 47.1973 35.3346 47.594C34.7699 47.986 34.1376 48.182 33.4376 48.182ZM30.9456 44.08H35.9226C35.8899 43.646 35.7569 43.2493 35.5236 42.89C35.2949 42.526 34.9986 42.2367 34.6346 42.022C34.2706 41.8027 33.8716 41.693 33.4376 41.693C33.0036 41.693 32.6069 41.8003 32.2476 42.015C31.8882 42.225 31.5942 42.512 31.3656 42.876C31.1369 43.2353 30.9969 43.6367 30.9456 44.08Z" fill="#292929"/>
</svg>
